<svg width="521" height="104" viewBox="0 0 521 104" fill="none" xmlns="http://www.w3.org/2000/svg">
<path fill-rule="evenodd" clip-rule="evenodd" d="M0.136792 89.8385C0.0464697 89.7339 -0.0180464 89.6054 0.00453425 89.447L4.28517 62.9568C6.32065 75.047 15.2303 84.5464 27.7367 88.0724C29.1077 88.4549 30.6496 88.6402 32.2271 88.6551H39.9464C42.3819 88.6551 44.8174 88.428 47.2238 88.0187C65.0463 84.5105 80.1012 70.3257 82.7883 53.2602L82.7885 53.259C82.8174 53.0861 82.8464 52.9131 82.8721 52.7402C85.1108 37.0284 75.7302 22.7599 61.3044 17.7188C61.26 17.7044 61.2157 17.6901 61.1713 17.6757C60.5418 17.4718 59.9132 17.2681 59.2593 17.1062H89.785C89.9366 17.1062 90.0431 17.166 90.1463 17.2347C90.1526 17.2386 90.1548 17.2439 90.1565 17.2478C90.1574 17.2499 90.1581 17.2516 90.1592 17.2527C90.1665 17.2594 90.1683 17.2661 90.1701 17.2728C90.1707 17.2751 90.1713 17.2773 90.1721 17.2795C90.2624 17.3722 90.2979 17.4977 90.2786 17.6351L84.4044 53.9983C81.2657 73.9204 61.4754 89.9849 39.9335 89.9849H39.8883H0.49163C0.340018 89.9849 0.217437 89.9281 0.13034 89.8414L0.136792 89.8385ZM93.2931 87.1819H111.514L118.934 39.2078L119.365 87.1819H140.773L155.917 40.0101L148.64 87.1819H169.691L180.567 17.1062H148.471L135.424 57.6586L136.1 17.1186H104.163L93.2931 87.1819ZM69.0395 59.2645C68.4414 59.417 67.8211 59.0762 67.6755 58.5081L61.3589 34.7309C61.2101 34.1629 60.593 33.8131 60.0013 33.9566L56.8303 34.6622C56.2195 34.7997 55.8556 35.3857 56.0138 35.9537L60.9665 54.6275C60.8176 54.6715 60.1883 54.8052 59.5472 54.9414L59.5461 54.9416L59.5454 54.9418L59.545 54.9418L59.545 54.9418L59.5449 54.9419L59.5446 54.9419L59.5428 54.9423L59.5421 54.9425C58.8768 55.0838 58.2002 55.2276 58.036 55.2763C56.7448 50.6392 53.2922 38.2199 53.2922 38.2199C52.8935 36.7759 51.5105 35.7743 49.9409 35.7743H40.6052C39.3203 35.7743 38.1462 36.4351 37.5418 37.5024C37.5418 37.5024 32.4657 46.4267 30.9752 49.0427H15.9748C14.7437 49.0427 13.5918 49.6705 12.9715 50.6841L9.4999 56.3555C9.1866 56.8608 9.02837 57.4289 9.02837 57.9999C9.02837 58.1643 9.04419 58.3288 9.06951 58.4932L9.7594 62.8103C9.86067 63.4651 10.1676 64.0481 10.6202 64.5145C10.4556 64.9988 10.3417 65.5071 10.2879 66.0243C10.098 67.9138 10.7183 69.7076 12.0253 71.065C13.326 72.4193 15.1456 73.1667 17.1457 73.1667C21.1173 73.1667 24.5256 70.2308 24.899 66.4877C24.918 66.2635 24.9275 66.0363 24.9275 65.818C24.9275 65.7433 24.9275 65.6715 24.9244 65.5998H37.6589C38.0196 67.2411 38.8298 68.7539 40.0387 70.0126C41.9596 72.0097 44.6432 73.1069 47.5864 73.1069C53.4916 73.1069 58.5487 68.7479 59.1057 63.1781C59.15 62.7207 59.1689 62.2662 59.1468 61.8178L62.6659 61.0075L63.6374 64.6759C63.7893 65.238 64.4001 65.5818 65.0014 65.4353L75.7232 62.6698C76.3181 62.5233 76.8941 61.8805 77.0017 61.2467L78.2264 57.9192C78.3404 57.2853 77.9416 56.8817 77.3435 57.0342L69.0395 59.2645ZM47.5864 66.7299C46.5673 66.7299 45.6591 66.3711 45.0357 65.7283C44.4059 65.0646 44.1116 64.1617 44.2065 63.1781C44.4375 60.9268 46.6306 59.0254 49.0073 59.0254C50.0263 59.0254 50.9346 59.3871 51.5611 60.0359C52.1941 60.6876 52.4884 61.5965 52.3903 62.5801C52.1624 64.8284 49.9662 66.7299 47.5864 66.7299ZM16.1868 59.0343L16.1795 58.9973L16.1795 58.9972L16.1794 58.9972C16.1501 58.8486 16.1379 58.7871 16.1203 58.6487C16.4138 58.1676 16.7129 57.6794 17.0484 57.1317L17.05 57.1292L17.0536 57.1233L17.0569 57.1179L17.0617 57.11C17.3377 56.6595 17.6385 56.1685 17.9811 55.6081H33.0543C34.336 55.6081 35.5133 54.9444 36.1209 53.8801C36.1209 53.8801 41.1906 44.9528 42.6843 42.3368H47.2572C47.5119 43.2572 47.9355 44.7813 48.4309 46.564C48.9573 48.4582 49.5648 50.6442 50.1371 52.7081C49.7636 52.6662 49.387 52.6483 49.0073 52.6483C44.4407 52.6483 40.3678 55.2613 38.5102 59.0343H16.1868ZM17.1457 68.2875C16.4716 68.2875 16.0665 68.0184 15.8482 67.7852C15.519 67.4504 15.3766 66.99 15.4304 66.4877C15.5539 65.2619 16.7501 64.2215 18.0413 64.2215C18.7153 64.2215 19.1204 64.4995 19.3388 64.7327C19.6584 65.0586 19.804 65.516 19.7628 66.0243C19.6394 67.2501 18.4432 68.2875 17.1457 68.2875ZM206.429 58.5087H215.702V33.7474L206.429 58.5087ZM234.633 17.1062L240.757 87.1695H216.927V76.097H201.032L196.724 87.1819H174.548L205.003 17.1062H234.633ZM246.775 87.1819H265.047L271.538 45.3512L277.767 87.1664H305.108L315.993 17.1062H297.272L290.886 58.3043L285.24 17.1062H257.673L246.775 87.1819ZM334.716 87.1819H309.974L321.342 17.1062H346.087L334.716 87.1819ZM509.95 66.1114L509.949 66.1189C509.906 66.5728 507.954 87.1819 477.85 87.1819C452.124 87.1819 453.996 71.9995 454.82 66.0323L462.539 17.1184C462.539 17.1184 483.115 17.1062 485.815 17.1062L478.504 63.2769L478.502 63.2895C478.244 64.9399 477.614 68.9733 481.97 68.9733C486.331 68.9733 486.975 64.9192 487.232 63.2769L494.459 17.1062C495.906 17.1062 517.626 17.1214 517.626 17.1214L509.95 66.1114ZM421.982 69.0187C426.333 69.0187 426.972 64.9626 427.228 63.3219L430.856 40.4038C431.189 38.2982 431.755 34.71 427.41 34.71C423.062 34.71 422.492 38.288 422.156 40.3948L422.154 40.4038L418.532 63.3219C418.273 64.9626 417.634 69.0187 421.982 69.0187ZM351.958 17.1484H424.677C425.978 17.1484 427.228 17.1371 428.432 17.1262C436.313 17.0546 442.188 17.0012 447.161 20.2749C456.448 26.4488 454.185 37.6268 454.185 37.6268L449.709 65.8771C449.709 65.8771 447.644 87.1819 418.145 87.1819C390.587 87.1819 395.562 62.9816 395.562 62.9816L400.015 34.7191H384.743L376.722 86.1276H353.381L361.428 34.6674H349.097L351.958 17.1484ZM13.3827 17.1062C13.0723 17.1062 12.7871 17.3558 12.7432 17.6615L9.02837 42.3335C14.6962 30.0271 26.0443 20.4628 39.1229 17.1062H13.3827Z" fill="#EB1212"/>
</svg>
