<svg xmlns="http://www.w3.org/2000/svg" width="60" height="60" viewBox="0 0 60 60" fill="none">
    <path fill-rule="evenodd" clip-rule="evenodd" d="M35.0064 7.3159C33.0594 2.6073 30.4817 0 27.4109 0L26.8746 0.0499882C24.9279 0.31948 23.1883 1.43322 22.1305 3.10768L21.623 3.85337C20.4731 5.62244 19.5666 7.59068 18.9577 9.66021L18.5448 11.0326L18.1691 12.4186C17.8121 13.8108 17.5115 15.2212 17.269 16.6433L17.1843 17.1848L16.6387 17.2734C14.268 17.6778 11.9272 18.2443 9.6329 18.9692C7.29049 19.6578 5.05749 20.7425 3.04848 22.1717L2.68325 22.4204C1.14137 23.551 0.138082 25.3553 2.45403e-06 27.3301C-0.00292025 30.4849 2.60492 33.0627 7.28917 34.9983L8.53117 35.4607L9.78299 35.887C11.8772 36.5673 14.0104 37.0965 16.1722 37.4727L16.5195 37.5258L16.5673 38.1263C16.9412 42.2728 17.7432 46.3709 18.9614 50.3549C19.6535 52.7079 20.7381 54.9408 22.1672 56.9499L22.4159 57.3153C23.5464 58.8581 25.3515 59.8621 27.3273 60L27.6901 59.9882L28.0555 59.9516C32.5278 59.348 35.7323 53.1542 37.385 44.189L37.6394 42.7113C37.84 41.4604 38.0119 40.1617 38.1545 38.8221L38.2141 38.2291L38.8033 38.1719L40.388 37.9898L41.9314 37.7794C52.5843 36.209 60 32.5885 60 27.4138C59.849 25.2031 58.6968 23.2733 56.8942 22.1337L56.1484 21.626C54.3792 20.476 52.4109 19.5695 50.3413 18.9606L48.8457 18.5244L47.3394 18.1271C44.3166 17.3715 41.2347 16.8505 38.1249 16.5702L37.5253 16.5224L37.4714 16.1752C36.9448 13.1489 36.1193 10.1813 35.0064 7.3159ZM31.9762 38.4595L33.9587 38.4235L33.7916 39.9402C33.3144 43.6978 32.4168 47.393 31.1138 50.9559C29.8599 54.0665 28.3895 55.7715 27.4109 55.7715C26.1869 55.7715 24.3805 53.3238 22.9923 49.0634L22.6012 47.7203C22.2271 46.3718 21.904 45.0082 21.6328 43.633L21.4925 42.8709L21.5704 42.9875C21.7435 43.2095 21.9625 43.3989 22.2185 43.5396C22.5285 43.7093 22.8742 43.7976 23.2254 43.7974L23.54 43.7717C23.8494 43.7235 24.1411 43.6088 24.3985 43.4342L31.9762 38.4595ZM25.3591 37.7634L27.5072 36.3546L25.3591 34.9457V37.7634ZM21.6717 20.8633C24.4383 20.5747 27.2189 20.4328 30.0032 20.4385L31.1657 20.4483C31.9484 20.4614 32.7477 20.4874 33.5712 20.5258L33.8339 20.5378L33.9035 21.1354L31.0283 21.137L30.7453 21.1512C30.0913 21.2308 29.4923 21.63 29.1638 22.2335C28.7882 22.9232 28.8286 23.7648 29.2684 24.4154L34.5858 32.5267L34.7449 32.739C35.144 33.2073 35.7312 33.4823 36.3551 33.4823C37.0681 33.4823 37.7332 33.1231 38.1242 32.5269L43.4512 24.4013L43.5931 24.1527C43.8812 23.5547 43.8683 22.8406 43.541 22.2423L43.3842 21.9983C43.2697 21.8443 43.1358 21.7082 42.9871 21.5926L42.88 21.5194L43.6349 21.6596C45.4714 22.0233 47.2897 22.48 49.0829 23.0283C53.322 24.4112 55.7701 26.2157 55.7701 27.4373C55.7692 28.4037 54.0806 29.8706 50.9783 31.1339C46.2988 32.8416 41.3508 33.8628 36.3336 34.1489L31.9618 34.2329L24.3798 29.2605L24.1298 29.1185C23.5286 28.8306 22.8136 28.8459 22.2161 29.1762L21.9736 29.3321C21.4377 29.7314 21.1178 30.3691 21.1279 31.0506L21.1277 33.904L20.5325 33.8368L20.5035 33.1921C20.4606 32.1102 20.4385 31.0491 20.4385 30.0046L20.4529 28.3341C20.4957 26.1077 20.6327 23.8851 20.8636 21.6716L20.9453 20.9458L21.6717 20.8633ZM16.6227 21.5794L15.2413 21.8565C13.7897 22.169 12.3546 22.5492 10.9428 22.9952C6.6824 24.3834 4.23479 26.1898 4.23479 27.4138C4.23479 28.3856 5.87354 29.8342 8.88319 31.0771C10.9166 31.8695 13.0081 32.4997 15.138 32.9625L16.2651 33.1864L16.263 33.1357C16.2445 32.6169 16.2305 32.0968 16.2212 31.5757L16.2072 30.0097C16.2028 27.3317 16.3273 24.6554 16.5801 21.9901L16.6227 21.5794ZM36.354 27.5101L34.9452 25.362H37.7629L36.354 27.5101ZM27.4109 4.23771C26.1873 4.23771 24.3807 6.68405 22.9952 10.9304C22.5455 12.3489 22.1636 13.7866 21.8501 15.2401L21.5717 16.6256L21.9824 16.5831C23.9814 16.3934 25.9863 16.276 27.993 16.231L30.0001 16.2102L31.5672 16.2241L33.1811 16.268L32.9564 15.1429C32.5877 13.4413 32.1128 11.7663 31.5362 10.1323L31.0847 8.91465C29.8317 5.87976 28.3822 4.23771 27.4109 4.23771Z"/>
</svg>