<svg xmlns="http://www.w3.org/2000/svg" width="60" height="60" viewBox="0 0 60 60" fill="none">
    <path fill-rule="evenodd" clip-rule="evenodd" d="M43.9964 7.50205L44.2706 7.53129L45.4636 7.7221C48.718 8.29438 51.8941 9.26985 54.9478 10.6409C58.0342 12.1687 59.799 14.0786 59.9838 16.3277L60 16.7282L59.9143 42.3125C59.9143 45.7013 56.4714 48.2962 50.1952 50.1324C44.1089 51.731 37.8478 52.5576 31.574 52.5944L30.0054 52.5871C28.5621 52.5878 27.1412 52.559 25.7498 52.5017L24.0947 52.4192L22.4707 52.3094C22.2028 52.2889 21.9363 52.2673 21.6712 52.2445L20.099 52.0945L18.5648 51.9182L17.0714 51.7156L15.6215 51.4873L14.2178 51.2333C13.2981 51.0556 12.4111 50.861 11.5604 50.65L10.3121 50.3212L9.12121 49.9681C3.70153 48.2636 0.244431 45.773 0.0124559 42.6322L0 42.2932L0.0662808 16.7169C0.0662808 14.3203 1.79842 12.313 5.03221 10.6832C8.3347 9.17343 11.8323 8.13351 15.3957 7.59824C16.0335 7.48718 16.6877 7.66382 17.1839 8.08163C17.606 8.43788 17.8755 8.93784 17.9447 9.48187L17.9624 9.7571L17.9448 21.8016L18.7864 21.9235C21.2693 22.2512 23.7659 22.4667 26.2703 22.5693L28.15 22.625L30.0321 22.6385C33.6805 22.6524 37.3252 22.4281 40.9431 21.9673L41.724 21.8568L41.711 9.696C41.709 9.23398 41.8534 8.78832 42.1151 8.42071L42.2859 8.20999L42.4835 8.02097C42.9069 7.6614 43.4481 7.47831 43.9964 7.50205ZM55.5912 22.4136L55.2276 22.6224C53.9177 23.3341 52.536 23.9049 51.1084 24.3234L50.2465 24.5562C45.8462 25.7103 41.355 26.462 36.8389 26.8046C37.3224 26.8518 37.7999 26.9041 38.2709 26.9615L39.6642 27.1487C48.3588 28.4297 54.5307 31.5126 54.5307 35.9524C54.5307 38.4819 52.5794 40.7782 48.2343 42.5451C44.4966 43.9164 40.5955 44.7852 36.5829 45.1317L35.2414 45.2279H35.1626C34.3583 45.2271 33.6526 44.7919 33.2726 44.1407L33.1458 43.8869L33.1296 43.848L33.1096 43.9173C33.0118 44.1675 32.8684 44.3985 32.6861 44.5978L32.491 44.7861L32.2715 44.9505L27.315 48.2044C28.2102 48.2241 29.1067 48.2271 30.0042 48.2133C36.4173 48.3137 42.8142 47.5415 48.9863 45.9268C49.5526 45.7613 50.0965 45.5838 50.6118 45.3987L51.6026 45.0195C53.8174 44.1165 55.3231 43.1076 55.5055 42.4236L55.5242 42.289L55.5912 22.4136ZM4.4304 22.3944L4.37561 42.2964C4.37561 43.195 7.16392 44.8244 10.9156 45.9175C14.406 46.8287 17.9569 47.4717 21.5436 47.8429L22.3872 47.5584L22.3752 47.3858L22.3752 45.0168L22.1346 44.9953C19.4469 44.6995 16.7915 44.1536 14.1916 43.3607L12.8963 42.9436L11.6109 42.4855C7.38044 40.7377 5.46284 38.4565 5.46284 35.9524C5.46284 31.6238 11.3261 28.5857 19.6744 27.2465L21.0495 27.0443L22.4648 26.8723C22.7039 26.8461 22.9446 26.8213 23.1867 26.7977C18.676 26.4578 14.2025 25.7082 9.8266 24.5604C8.07568 24.1277 6.39138 23.4724 4.81394 22.6134L4.4304 22.3944ZM29.9765 30.8487L28.5808 30.8443C23.9309 30.8931 19.31 31.5787 14.8743 32.8753C11.6697 33.9205 9.83846 35.2364 9.83846 35.9476C9.83846 36.7404 11.3548 37.7745 13.9381 38.7003L14.8934 39.022C16.7234 39.6014 18.9779 40.1183 21.5352 40.4779L22.3752 40.5888L22.3752 38.852C22.3756 38.2492 22.6236 37.683 23.0469 37.2757L23.2728 37.0859L23.5259 36.9261C24.1443 36.5936 24.8784 36.5804 25.5026 36.8771L25.7626 37.0232L32.2714 41.2912C32.5027 41.4428 32.6995 41.6343 32.8551 41.8534L32.9968 42.0811L33.1008 42.3072L33.1826 42.1078C33.4302 41.5819 33.8818 41.1673 34.4417 40.9717L34.7303 40.8927L34.9955 40.8558C38.2766 40.6027 41.2117 40.0907 43.6052 39.4615L44.6707 39.1634C48.0895 38.1451 50.1551 36.9012 50.1551 35.9476C50.1551 35.2357 48.3229 33.9188 45.1545 32.8862C40.6495 31.5688 35.9859 30.8819 31.2652 30.8432L29.9765 30.8487ZM46.0872 12.3312L46.0968 21.0888L46.5128 20.9996C47.1063 20.8652 47.6805 20.7237 48.2341 20.5752L49.0491 20.3473C52.5032 19.3371 55.163 17.8854 55.5507 16.9977L55.5928 16.8624L55.6098 16.7136C55.6098 15.6099 52.3894 13.781 46.7229 12.4747L46.0872 12.3312ZM13.5648 21.0024L13.5768 12.4152L13.0226 12.5461C12.5848 12.6504 12.1621 12.7578 11.7549 12.8678L10.5803 13.2048C6.82252 14.3492 4.65397 15.6848 4.45526 16.5847L4.44 16.7304L4.45573 16.8408C4.68223 17.717 7.14017 19.1481 10.4893 20.1932L10.9982 20.347C11.615 20.5267 12.2578 20.6969 12.9246 20.8572L13.5648 21.0024Z"/>
</svg>