<svg xmlns="http://www.w3.org/2000/svg" width="60" height="60" viewBox="0 0 60 60" fill="none">
    <path d="M58.5817 26.6558L38.8305 6.90459C37.6204 5.63138 35.8152 5.11441 34.1146 5.55413C32.414 5.99384 31.0856 7.32109 30.6444 9.02126C30.2032 10.7214 30.7186 12.5272 31.9907 13.7383L43.6663 25.3959H4.83581C2.16507 25.3959 0 27.5609 0 30.2317C0 32.9024 2.16507 35.0675 4.83581 35.0675H43.5583L31.9907 46.653C30.1833 48.5548 30.2221 51.5509 32.0781 53.4053C33.9341 55.2597 36.9303 55.2958 38.8305 53.4867L58.5817 33.7355C59.4919 32.8307 60.0019 31.5991 59.9976 30.3157C60.0008 30.2757 60.0008 30.2356 59.9976 30.1957C60.0005 30.1557 60.0005 30.1156 59.9976 30.0757C59.9972 28.7932 59.488 27.5632 58.5817 26.6558Z"/>
</svg>