<svg xmlns="http://www.w3.org/2000/svg" width="60" height="60" viewBox="0 0 60 60" fill="none">
    <path d="M1.41831 33.3442L21.1695 53.0954C22.3796 54.3686 24.1848 54.8856 25.8854 54.4459C27.586 54.0062 28.9144 52.6789 29.3556 50.9787C29.7968 49.2786 29.2814 47.4728 28.0093 46.2617L16.3337 34.6041L55.1642 34.6041C57.8349 34.6041 60 32.4391 60 29.7683C60 27.0976 57.8349 24.9325 55.1642 24.9325L16.4417 24.9325L28.0093 13.347C29.8167 11.4452 29.7779 8.44907 27.9219 6.59468C26.0659 4.74028 23.0697 4.70415 21.1695 6.51325L1.41831 26.2645C0.508091 27.1693 -0.00185394 28.4009 0.00236511 29.6843C-0.000789642 29.7243 -0.000789642 29.7644 0.00236511 29.8043C-0.000476837 29.8443 -0.000476837 29.8844 0.00236511 29.9243C0.00279236 31.2068 0.512032 32.4368 1.41831 33.3442Z"/>
</svg>