<svg xmlns="http://www.w3.org/2000/svg" width="60" height="60" viewBox="0 0 60 60" fill="none">
    <path fill-rule="evenodd" clip-rule="evenodd" d="M7.76644 13.8849L30 29.4484L52.2336 13.8849C51.8201 13.0673 50.9699 12.5 50 12.5H10C9.0301 12.5 8.17989 13.0673 7.76644 13.8849ZM52.5 19.8016L31.4337 34.5481C30.5729 35.1506 29.4271 35.1506 28.5663 34.5481L7.5 19.8016V45C7.5 46.3693 8.63071 47.5 10 47.5H50C51.3693 47.5 52.5 46.3693 52.5 45V19.8016ZM2.5 15C2.5 10.8693 5.86929 7.5 10 7.5H50C54.1307 7.5 57.5 10.8693 57.5 15V45C57.5 49.1307 54.1307 52.5 50 52.5H10C5.86929 52.5 2.5 49.1307 2.5 45V15Z"/>
</svg>