<svg xmlns="http://www.w3.org/2000/svg" width="60" height="60" viewBox="0 0 60 60" fill="none">
    <path fill-rule="evenodd" clip-rule="evenodd" d="M16.2 24.6C16.2 34.5411 24.2588 42.6 34.2 42.6C44.1411 42.6 52.2 34.5411 52.2 24.6C52.2 14.6589 44.1411 6.59998 34.2 6.59998C24.2588 6.59998 16.2 14.6589 16.2 24.6ZM47.7 24.6C47.7 32.0558 41.6558 38.1 34.2 38.1C26.7441 38.1 20.7 32.0558 20.7 24.6C20.7 17.1441 26.7441 11.1 34.2 11.1C41.6558 11.1 47.7 17.1441 47.7 24.6Z"/>
    <path d="M23.8874 39.3177C24.6213 38.287 26.0517 38.0464 27.0824 38.7803C28.113 39.5142 28.3536 40.9446 27.6197 41.9753L21.0425 51.2123C20.3086 52.243 18.8782 52.4835 17.8475 51.7497C16.8169 51.0158 16.5763 49.5854 17.3102 48.5547L23.8874 39.3177Z"/>
</svg>