<svg xmlns="http://www.w3.org/2000/svg" width="60" height="60" viewBox="0 0 60 60" fill="none">
    <path fill-rule="evenodd" clip-rule="evenodd" d="M7.63732 27.5H17.6252C18.1857 20.592 20.4978 13.9611 24.3143 8.22457C15.422 10.5399 8.67002 18.1581 7.63732 27.5ZM30 8.877C25.8258 14.2548 23.272 20.7171 22.644 27.5H37.356C36.728 20.7171 34.1742 14.2548 30 8.877ZM37.356 32.5C36.728 39.2829 34.1742 45.7452 30 51.123C25.8258 45.7452 23.272 39.2829 22.644 32.5H37.356ZM17.6252 32.5H7.63732C8.67002 41.8419 15.422 49.4601 24.3143 51.7754C20.4978 46.0389 18.1857 39.408 17.6252 32.5ZM35.6857 51.7754C39.5022 46.0389 41.8143 39.408 42.3748 32.5H52.3627C51.33 41.8419 44.578 49.4601 35.6857 51.7754ZM52.3627 27.5H42.3748C41.8143 20.592 39.5022 13.9611 35.6857 8.22457C44.578 10.5399 51.33 18.1581 52.3627 27.5ZM2.5 30C2.5 14.8122 14.8122 2.5 30 2.5C45.1878 2.5 57.5 14.8122 57.5 30C57.5 45.1878 45.1878 57.5 30 57.5C14.8122 57.5 2.5 45.1878 2.5 30Z"/>
</svg>