<svg xmlns="http://www.w3.org/2000/svg" width="60" height="60" viewBox="0 0 60 60" fill="none">
    <path fill-rule="evenodd" clip-rule="evenodd" d="M45 8.125C46.0355 8.125 46.875 8.96447 46.875 10V50C46.875 51.0355 46.0355 51.875 45 51.875C43.9645 51.875 43.125 51.0355 43.125 50V10C43.125 8.96447 43.9645 8.125 45 8.125ZM30 23.125C31.0355 23.125 31.875 23.9645 31.875 25V50C31.875 51.0355 31.0355 51.875 30 51.875C28.9645 51.875 28.125 51.0355 28.125 50V25C28.125 23.9645 28.9645 23.125 30 23.125ZM15 38.125C16.0355 38.125 16.875 38.9645 16.875 40V50C16.875 51.0355 16.0355 51.875 15 51.875C13.9645 51.875 13.125 51.0355 13.125 50V40C13.125 38.9645 13.9645 38.125 15 38.125Z"/>
</svg>