<svg xmlns="http://www.w3.org/2000/svg" width="60" height="60" viewBox="0 0 60 60" fill="none">
    <path fill-rule="evenodd" clip-rule="evenodd" d="M30 7.5C27.3478 7.5 24.8043 8.55357 22.9289 10.4289C21.0536 12.3043 20 14.8478 20 17.5V25H40V17.5C40 14.8478 38.9464 12.3043 37.0711 10.4289C35.1957 8.55357 32.6522 7.5 30 7.5ZM45 25V17.5C45 13.5218 43.4196 9.70644 40.6066 6.8934C37.7936 4.08035 33.9782 2.5 30 2.5C26.0218 2.5 22.2064 4.08035 19.3934 6.8934C16.5804 9.70644 15 13.5218 15 17.5V25H12.5C8.35786 25 5 28.3579 5 32.5V50C5 54.1421 8.35786 57.5 12.5 57.5H47.5C51.6421 57.5 55 54.1421 55 50V32.5C55 28.3579 51.6421 25 47.5 25H45ZM12.5 30C11.1193 30 10 31.1193 10 32.5V50C10 51.3807 11.1193 52.5 12.5 52.5H47.5C48.8807 52.5 50 51.3807 50 50V32.5C50 31.1193 48.8807 30 47.5 30H12.5Z"/>
</svg>