<svg xmlns="http://www.w3.org/2000/svg" width="60" height="60" viewBox="0 0 60 60" fill="none">
    <g clip-path="url(#clip0_177_563)">
        <path fill-rule="evenodd" clip-rule="evenodd" d="M0.732233 0.732233C1.70854 -0.244078 3.29146 -0.244078 4.26777 0.732233L17.0289 13.4934C17.056 13.5192 17.0824 13.5457 17.1084 13.5728L26.9703 23.4348C27.1269 23.5578 27.269 23.6996 27.393 23.8574L59.2678 55.7322C60.2441 56.7085 60.2441 58.2915 59.2678 59.2678C58.2915 60.2441 56.7085 60.2441 55.7322 59.2678L39.1908 42.7264C38.5389 42.8568 37.8368 42.7284 37.2521 42.313C35.1371 40.8104 32.6069 40.0031 30.0125 40.0031C27.4181 40.0031 24.8879 40.8104 22.7729 42.313C21.6473 43.1127 20.0866 42.8485 19.287 41.7229C18.4873 40.5973 18.7515 39.0366 19.8771 38.237C22.8381 36.1333 26.3803 35.0031 30.0125 35.0031C30.5218 35.0031 31.0294 35.0254 31.5338 35.0694L24.5798 28.1153C20.7319 28.9825 17.1391 30.7549 14.1036 33.2929C13.0443 34.1786 11.4677 34.0378 10.5821 32.9786C9.69642 31.9193 9.83716 30.3427 10.8964 29.4571C13.7543 27.0676 17.0232 25.2431 20.5287 24.0642L14.719 18.2546C11.258 19.797 8.04947 21.8595 5.20571 24.3731C4.17121 25.2876 2.59129 25.1902 1.67687 24.1557C0.762444 23.1212 0.859788 21.5413 1.89429 20.6269C4.6435 18.1968 7.69334 16.1385 10.9649 14.5004L0.732233 4.26777C-0.244078 3.29146 -0.244078 1.70854 0.732233 0.732233ZM41.8283 16.9142C37.0484 15.3236 31.9971 14.7123 26.9758 15.1169C25.5995 15.2278 24.394 14.202 24.2831 12.8258C24.1722 11.4495 25.198 10.244 26.5742 10.1331C32.265 9.67453 37.9898 10.3673 43.407 12.1699C48.8242 13.9726 53.8226 16.8483 58.1039 20.6253C59.1393 21.5387 59.2382 23.1185 58.3247 24.1539C57.4113 25.1893 55.8315 25.2882 54.7961 24.3747C51.0185 21.0421 46.6081 18.5048 41.8283 16.9142ZM39.5533 26.5535C40.1589 25.3127 41.6557 24.7977 42.8965 25.4033C45.1314 26.494 47.2213 27.8598 49.1175 29.4688C50.1703 30.3621 50.2995 31.9397 49.4062 32.9925C48.5129 34.0453 46.9353 34.1745 45.8825 33.2812C44.3039 31.9417 42.5641 30.8047 40.7035 29.8967C39.4627 29.2911 38.9477 27.7943 39.5533 26.5535ZM27.5 50C27.5 48.6193 28.6193 47.5 30 47.5H30.025C31.4057 47.5 32.525 48.6193 32.525 50C32.525 51.3807 31.4057 52.5 30.025 52.5H30C28.6193 52.5 27.5 51.3807 27.5 50Z"/>
    </g>
    <defs>
        <clipPath id="clip0_177_563">
            <rect width="60" height="60" fill="white"/>
        </clipPath>
    </defs>
</svg>