<svg xmlns="http://www.w3.org/2000/svg" width="60" height="60" viewBox="0 0 60 60" fill="none">
    <path fill-rule="evenodd" clip-rule="evenodd" d="M30 15.0066C20.8694 15.0066 12.0525 18.3378 5.20308 24.3754C4.16732 25.2884 2.58754 25.1889 1.67454 24.1531C0.761548 23.1174 0.86107 21.5376 1.89683 20.6246C9.65952 13.782 19.652 10.0066 30 10.0066C40.3479 10.0066 50.3404 13.782 58.1031 20.6246C59.1388 21.5376 59.2384 23.1174 58.3254 24.1531C57.4124 25.1889 55.8326 25.2884 54.7968 24.3754C47.9474 18.3378 39.1305 15.0066 30 15.0066ZM30.1 27.5053C24.2536 27.5053 18.5921 29.5543 14.1 33.2959C13.0391 34.1796 11.4627 34.0359 10.579 32.975C9.69536 31.9141 9.83905 30.3377 10.9 29.4541C16.2906 24.9641 23.0843 22.5053 30.1 22.5053C37.1156 22.5053 43.9093 24.9641 49.3 29.4541C50.3609 30.3377 50.5045 31.9141 49.6209 32.975C48.7372 34.0359 47.1609 34.1796 46.1 33.2959C41.6078 29.5543 35.9463 27.5053 30.1 27.5053ZM30.0125 40.0031C27.418 40.0031 24.8879 40.8104 22.7729 42.313C21.6473 43.1127 20.0866 42.8485 19.2869 41.7229C18.4873 40.5973 18.7515 39.0366 19.877 38.237C22.838 36.1333 26.3803 35.0031 30.0125 35.0031C33.6447 35.0031 37.1869 36.1333 40.1479 38.237C41.2734 39.0366 41.5376 40.5973 40.738 41.7229C39.9383 42.8485 38.3776 43.1127 37.252 42.313C35.137 40.8104 32.6069 40.0031 30.0125 40.0031ZM27.5 50C27.5 48.6193 28.6192 47.5 30 47.5H30.025C31.4057 47.5 32.525 48.6193 32.525 50C32.525 51.3807 31.4057 52.5 30.025 52.5H30C28.6192 52.5 27.5 51.3807 27.5 50Z"/>
</svg>